<svg width="214" height="64" viewBox="0 0 214 64" fill="none" xmlns="http://www.w3.org/2000/svg">
<g clip-path="url(#clip0_169_2378)">
<path d="M198.282 0H13.3308C12.8467 0 12.3675 0 11.8783 0.020069C10.8173 0.0335206 9.75895 0.12829 8.71245 0.303543C7.66455 0.47791 6.64941 0.811214 5.7021 1.29194C4.75821 1.7754 3.8957 2.40345 3.14581 3.15334C2.39531 3.90228 1.7702 4.7671 1.29445 5.71464C0.813796 6.66198 0.480495 7.67711 0.306052 8.72499C0.13011 9.76883 0.0361678 10.8248 0.0250862 11.8833C0 12.3675 0 12.8517 0 13.3358V50.6742C0 51.1759 0 51.64 0.0250862 52.1317C0.0360163 53.191 0.129959 54.2479 0.306052 55.2926C0.480342 56.3405 0.81365 57.3556 1.29445 58.3029C1.7722 59.2481 2.40092 60.109 3.15585 60.8517C3.90222 61.6063 4.7654 62.2357 5.71214 62.7156C6.65965 63.199 7.67443 63.5372 8.72248 63.719C9.7668 63.8804 10.8216 63.9643 11.8783 63.9699C12.3675 63.9699 12.8467 63.9875 13.3308 63.9875H199.992C200.474 63.9875 200.968 63.9875 201.45 63.9699C202.508 63.9565 203.564 63.8634 204.608 63.6914C205.656 63.5072 206.67 63.169 207.619 62.688C208.565 62.2094 209.427 61.5808 210.172 60.8266C210.925 60.0807 211.555 59.2205 212.039 58.2778C212.517 57.3301 212.846 56.3149 213.017 55.2675C213.194 54.2226 213.292 53.1661 213.311 52.1066C213.311 51.6049 213.311 51.1408 213.311 50.6491C213.311 50.0771 213.311 49.5052 213.311 48.9232V15.0517C213.311 14.4722 213.311 13.8978 213.311 13.3258C213.311 12.8416 213.311 12.3575 213.311 11.8733C213.292 10.813 213.194 9.7556 213.017 8.70994C212.846 7.66254 212.516 6.64738 212.039 5.69959C211.062 3.80533 209.518 2.26411 207.621 1.29194C206.673 0.813432 205.658 0.480241 204.611 0.303543C203.564 0.12773 202.504 0.0337907 201.442 0.0225776C200.961 0.0225776 200.467 0.00501725 199.985 0.00250862L198.282 0Z" fill="#B6B6B6"/>
<path d="M13.3382 62.6177C12.8565 62.6177 12.3874 62.6177 11.9082 62.6002C10.92 62.5893 9.93397 62.5054 8.9581 62.3493C8.0479 62.1919 7.16611 61.9003 6.3416 61.4838C5.52453 61.0703 4.77917 60.5282 4.13401 59.8783C3.47967 59.2358 2.93555 58.49 2.52348 57.6707C2.1044 56.848 1.815 55.9654 1.66553 55.0542C1.50661 54.0754 1.42275 53.0857 1.41467 52.0941C1.41467 51.7604 1.39209 50.6516 1.39209 50.6516V13.3358C1.39209 13.3358 1.39209 12.2446 1.41467 11.9235C1.42306 10.9335 1.50692 9.94557 1.66553 8.96832C1.81579 8.05416 2.10512 7.16839 2.52348 6.34179C2.93568 5.52455 3.47696 4.77912 4.12649 4.1342C4.77505 3.48064 5.52156 2.93219 6.3391 2.50862C7.16246 2.09738 8.04268 1.81159 8.95057 1.6607C9.93043 1.50279 10.9208 1.41893 11.9133 1.40984L13.3382 1.38977H199.98L201.422 1.40984C202.405 1.41986 203.387 1.50371 204.357 1.6607C205.275 1.81689 206.164 2.10856 206.996 2.52618C208.636 3.37129 209.972 4.70684 210.817 6.34681C211.228 7.16727 211.513 8.04516 211.662 8.95076C211.825 9.93629 211.917 10.9323 211.936 11.931C211.936 12.3775 211.936 12.8592 211.936 13.3358C211.936 13.9279 211.936 14.4923 211.936 15.0618V48.9407C211.936 49.5127 211.936 50.0746 211.936 50.6391C211.936 51.1408 211.936 51.6224 211.936 52.1066C211.918 53.0877 211.828 54.0662 211.667 55.0342C211.52 55.9516 211.232 56.8408 210.814 57.6707C210.397 58.4803 209.855 59.2193 209.209 59.8608C208.564 60.5139 207.818 61.0586 206.999 61.4738C206.169 61.8943 205.281 62.1877 204.365 62.3443C203.388 62.5012 202.401 62.5851 201.412 62.5952C200.951 62.5952 200.466 62.6127 199.995 62.6127H13.3382V62.6177Z" fill="black"/>
<path fill-rule="evenodd" clip-rule="evenodd" d="M43.2361 11.6426H25.4249C17.0586 11.6426 13.978 14.7106 13.978 23.097V40.9082C13.978 49.2945 17.0461 52.3626 25.4324 52.3626H43.2436C51.63 52.3626 54.703 49.2945 54.703 40.9082V23.097C54.688 14.7106 51.6224 11.6426 43.2361 11.6426Z" fill="#C8102E"/>
<path d="M22.0406 32.0025H23.1193V37.3258H22.0406V35.1634H19.6022V37.3258H18.521V32.0025H19.6022V34.1499H22.0406V32.0025ZM28.124 35.0505C28.124 35.916 27.695 36.3776 26.9149 36.3776C26.1347 36.3776 25.6982 35.9034 25.6982 35.0129V32.0025H24.617V35.048C24.617 36.5532 25.4498 37.4036 26.8998 37.4036C28.3498 37.4036 29.2027 36.5281 29.2027 35.0028V31.9925H28.124V35.0505ZM40.6044 35.6626L39.3978 32.0025H38.5147L37.3081 35.6626L36.124 32.005H34.9751L36.8289 37.3258H37.7245L38.9337 33.8313L40.1428 37.3258H41.0459L42.8973 32.005H41.7759L40.6044 35.6626ZM44.839 35.0355H46.8032V34.0671H44.839V32.9759H47.6913V32.0075H43.7753V37.3233H47.7891V36.3525H44.839V35.0355ZM49.081 37.3183H50.1472V32.0025H49.081V37.3183ZM31.3376 36.2145L30.8559 37.3233H29.7521L32.0952 32.0025H33.0484L35.384 37.3233H34.2526L33.7734 36.2145H31.3376ZM31.7389 35.2562H33.3645L32.5467 33.3497L31.7389 35.2562Z" fill="white"/>
<path d="M34.3353 25.2268C32.5389 25.2268 30.8161 24.5132 29.5459 23.2429C28.2756 21.9727 27.562 20.2499 27.562 18.4535H28.5203C28.5042 19.2278 28.6428 19.9975 28.928 20.7175C29.2132 21.4376 29.6393 22.0935 30.1812 22.6467C30.7231 23.2 31.37 23.6396 32.084 23.9397C32.7979 24.2398 33.5646 24.3943 34.3391 24.3943C35.1135 24.3943 35.8802 24.2398 36.5942 23.9397C37.3081 23.6396 37.955 23.2 38.4969 22.6467C39.0388 22.0935 39.4649 21.4376 39.7501 20.7175C40.0353 19.9975 40.1739 19.2278 40.1578 18.4535H41.1161C41.1161 19.3436 40.9407 20.225 40.5998 21.0473C40.2589 21.8695 39.7594 22.6165 39.1296 23.2456C38.4998 23.8746 37.7523 24.3734 36.9296 24.7134C36.107 25.0533 35.2254 25.2278 34.3353 25.2268Z" fill="white"/>
<path d="M79.1219 41.9441H71.719L69.9053 46.7582H66.644L73.894 28.7764H76.9695L84.385 46.7582H80.9708L79.1219 41.9441ZM72.6497 39.4982H78.1687L76.1894 34.348C75.9184 33.6389 75.6508 32.8529 75.3866 31.9899C75.1474 32.7525 74.8882 33.5302 74.6089 34.3229L72.6497 39.4982Z" fill="white"/>
<path d="M85.8626 36.646C85.8626 35.6525 85.8283 34.5596 85.7598 33.3672H88.7199C88.8317 33.9289 88.9088 34.4969 88.9507 35.068C90.1749 33.7652 91.5789 33.1138 93.1627 33.1138C94.0584 33.1078 94.9393 33.3417 95.714 33.7911C96.5472 34.2949 97.2084 35.0392 97.6105 35.926C98.0955 36.8943 98.338 38.1311 98.338 39.6362C98.3769 41.02 98.0944 42.3939 97.5127 43.65C97.0143 44.6985 96.2118 45.5726 95.2098 46.1587C94.1657 46.7434 92.9844 47.0387 91.788 47.0141C90.8493 47.012 89.9173 46.8569 89.0285 46.555V52.0916L85.8777 52.3424L85.8626 36.646ZM94.1411 43.4895C94.7833 42.6533 95.1044 41.4266 95.1044 39.8093C95.1044 38.3042 94.8535 37.2255 94.3067 36.5481C94.0576 36.2242 93.7349 35.9643 93.3654 35.7898C92.996 35.6153 92.5902 35.5313 92.1818 35.5447C91.5892 35.5396 91.005 35.6846 90.4835 35.9661C89.9379 36.2695 89.4393 36.6506 89.0034 37.0975V44.2697C89.355 44.4292 89.7236 44.5479 90.1022 44.6234C90.5096 44.7099 90.925 44.7536 91.3415 44.7538C92.5724 44.7505 93.5089 44.329 94.1511 43.4895H94.1411Z" fill="white"/>
<path d="M100.345 36.6459C100.345 35.6525 100.312 34.5596 100.245 33.3672H103.205C103.315 33.9291 103.392 34.497 103.436 35.068C104.66 33.7686 106.064 33.1188 107.648 33.1188C108.543 33.1128 109.424 33.3467 110.199 33.7962C111.031 34.3014 111.692 35.0452 112.095 35.931C112.577 36.9027 112.817 38.1377 112.815 39.6362C112.855 41.0198 112.573 42.3937 111.993 43.65C111.493 44.6979 110.691 45.5718 109.69 46.1586C108.645 46.743 107.464 47.0383 106.268 47.0141C105.329 47.0119 104.397 46.8569 103.508 46.555V52.0915L100.355 52.3424L100.345 36.6459ZM108.636 43.4895C109.278 42.6533 109.599 41.4266 109.599 39.8093C109.599 38.3042 109.333 37.2171 108.802 36.5481C108.552 36.2242 108.23 35.9642 107.86 35.7898C107.491 35.6153 107.085 35.5313 106.677 35.5447C106.084 35.5396 105.5 35.6846 104.978 35.9661C104.432 36.2682 103.933 36.6495 103.498 37.0975V44.2697C103.849 44.4296 104.217 44.5483 104.595 44.6234C105.002 44.7096 105.417 44.7533 105.834 44.7538C107.065 44.7505 108 44.329 108.641 43.4895H108.636Z" fill="white"/>
<path d="M118.768 45.9078C117.429 45.1989 116.336 44.1025 115.63 42.762C114.898 41.3973 114.531 39.7842 114.531 37.9228C114.531 35.9042 114.949 34.1892 115.786 32.7777C116.595 31.4001 117.795 30.2945 119.235 29.6017C120.759 28.878 122.43 28.5149 124.117 28.5406C125.142 28.5358 126.164 28.6502 127.162 28.8818C128.092 29.0976 128.997 29.4113 129.861 29.8175L129.059 32.1756C127.562 31.4424 125.923 31.0443 124.257 31.0091C123.082 30.9834 121.919 31.2598 120.881 31.8118C119.908 32.3493 119.121 33.1688 118.623 34.1624C118.058 35.3292 117.783 36.6147 117.82 37.9103C117.798 39.0782 118.009 40.2387 118.44 41.3245C118.832 42.2925 119.514 43.116 120.391 43.6826C121.281 44.2596 122.402 44.5489 123.755 44.5506C124.371 44.5504 124.986 44.5 125.594 44.4001C126.18 44.3086 126.756 44.1634 127.315 43.9661V40.3311H123.051V37.9479H130.391V45.5189C129.324 46.0022 128.209 46.3721 127.064 46.6227C125.927 46.876 124.765 47.0047 123.6 47.0066C121.74 47.0066 120.13 46.6403 118.768 45.9078Z" fill="white"/>
<path d="M141.737 46.7582C141.618 46.1737 141.546 45.5806 141.521 44.9846C140.99 45.5825 140.345 46.0694 139.625 46.4171C138.805 46.8202 137.902 47.0223 136.988 47.0066C136.243 47.0163 135.505 46.8621 134.826 46.555C134.186 46.2627 133.647 45.788 133.276 45.1903C132.875 44.5178 132.676 43.7448 132.701 42.9627C132.68 42.3672 132.799 41.7752 133.05 41.2347C133.301 40.6941 133.675 40.2204 134.144 39.852C135.105 39.0793 136.709 38.693 138.955 38.693C139.794 38.6923 140.633 38.7501 141.464 38.8661V38.6152C141.464 37.4312 141.205 36.595 140.686 36.1066C140.168 35.6183 139.423 35.3766 138.453 35.3816C137.725 35.389 136.999 35.485 136.294 35.6676C135.605 35.833 134.933 36.0614 134.287 36.3499L133.785 34.1148C134.503 33.8184 135.247 33.5899 136.008 33.4324C136.963 33.222 137.939 33.1176 138.918 33.1214C139.955 33.0947 140.988 33.2746 141.955 33.6507C142.796 34.0099 143.486 34.6501 143.907 35.4619C144.375 36.3165 144.61 37.4688 144.61 38.9188V44.2421C144.61 44.7973 144.644 45.6335 144.712 46.7507L141.737 46.7582ZM139.848 44.2772C140.454 44.006 141 43.6182 141.456 43.1358V40.6522C140.757 40.5717 140.055 40.5265 139.352 40.5168C138.05 40.5168 137.151 40.7216 136.652 41.1314C136.407 41.3297 136.211 41.5826 136.08 41.8701C135.949 42.1575 135.887 42.4716 135.9 42.7871C135.9 43.456 136.08 43.9469 136.442 44.2596C136.857 44.5964 137.383 44.7664 137.917 44.7363C138.589 44.7292 139.251 44.5723 139.856 44.2772H139.848Z" fill="white"/>
<path d="M147.364 43.5447V27.7203L150.503 27.4695V42.9979C150.503 43.5698 150.603 43.9737 150.804 44.2095C150.926 44.3357 151.074 44.4329 151.239 44.4941C151.403 44.5553 151.58 44.5789 151.754 44.5632C152.035 44.5503 152.313 44.504 152.582 44.4253L152.953 46.6228C152.6 46.7524 152.234 46.8457 151.862 46.9013C151.459 46.9693 151.052 47.0045 150.643 47.0066C148.456 47.0066 147.363 45.8527 147.364 43.5447Z" fill="white"/>
<path d="M155.213 43.5447V27.7203L158.352 27.4695V42.9979C158.352 43.5698 158.452 43.9737 158.653 44.2095C158.775 44.3354 158.924 44.4324 159.088 44.4936C159.253 44.5548 159.429 44.5786 159.603 44.5632C159.885 44.5504 160.164 44.5041 160.434 44.4253L160.805 46.6228C160.451 46.7524 160.084 46.8457 159.711 46.9013C159.308 46.9693 158.901 47.0045 158.492 47.0066C156.308 47.0066 155.215 45.8527 155.213 43.5447Z" fill="white"/>
<path d="M173.875 40.454H164.864C165 43.2537 166.374 44.6535 168.986 44.6535C169.655 44.6514 170.321 44.5749 170.973 44.4252C171.638 44.275 172.289 44.0694 172.92 43.8106L173.597 45.9078C171.968 46.6544 170.193 47.0273 168.402 46.999C166.938 46.999 165.704 46.7306 164.699 46.1938C163.721 45.6764 162.931 44.8646 162.441 43.8733C161.91 42.7317 161.652 41.4819 161.688 40.2232C161.653 38.9044 161.928 37.5956 162.491 36.4026C162.981 35.385 163.761 34.5343 164.731 33.9567C165.739 33.3811 166.883 33.089 168.043 33.1113C169.344 33.1113 170.431 33.4073 171.304 33.9993C172.167 34.5817 172.842 35.4041 173.243 36.365C173.674 37.3976 173.889 38.5074 173.875 39.6262V40.454ZM170.8 38.5073C170.74 37.4387 170.463 36.6376 169.969 36.1041C169.716 35.8364 169.408 35.6265 169.067 35.4884C168.725 35.3503 168.358 35.2873 167.99 35.3038C167.618 35.292 167.247 35.3577 166.902 35.4968C166.556 35.6359 166.243 35.8452 165.983 36.1116C165.451 36.6485 165.104 37.447 164.942 38.5073H170.8Z" fill="white"/>
<path d="M176.416 36.7313C176.416 35.9971 176.382 34.8757 176.313 33.3672H179.261C179.314 33.741 179.361 34.185 179.409 34.7018C179.457 35.2186 179.487 35.64 179.504 35.9561C179.823 35.4335 180.184 34.9376 180.583 34.4735C180.933 34.0739 181.353 33.7415 181.822 33.4926C182.32 33.2346 182.875 33.1044 183.435 33.1138C183.858 33.1059 184.281 33.1566 184.69 33.2644L184.293 35.9185C183.961 35.8247 183.617 35.7791 183.272 35.783C182.585 35.7688 181.908 35.961 181.331 36.3349C180.644 36.8396 180.044 37.4541 179.557 38.1537V46.7532H176.416V36.7313Z" fill="white"/>
<path d="M186.579 52.2396C186.194 52.1782 185.814 52.0885 185.442 51.9711L186.017 49.7385C186.228 49.7962 186.496 49.8514 186.82 49.9065C187.123 49.9579 187.43 49.9848 187.738 49.9868C189.136 49.9868 190.183 49.1138 190.879 47.3678L191.082 46.8661L186.004 33.3647H189.386L191.94 40.9106C192.27 41.8817 192.539 42.873 192.742 43.8783C192.98 42.91 193.261 41.9417 193.585 40.9733L196.174 33.3647H199.353L194.285 46.9313C193.904 48.0262 193.384 49.0681 192.74 50.032C192.243 50.7714 191.57 51.375 190.781 51.788C189.93 52.1907 188.997 52.3867 188.056 52.36C187.561 52.3612 187.067 52.321 186.579 52.2396Z" fill="white"/>
<path d="M66.6519 11.2888H72.3389L72.1809 12.6234H68.3176V15.2023H71.9601V16.4566H68.3176V19.3164H72.3866L72.2486 20.6686H66.6544L66.6519 11.2888Z" fill="white"/>
<path d="M76.2623 15.8771L73.252 11.2888H75.146L77.1805 14.6679L79.3279 11.2888H81.1692L78.194 15.8169L81.4151 20.6686H79.496L77.1956 16.9709L74.8525 20.6686H73.0137L76.2623 15.8771Z" fill="white"/>
<path d="M82.6416 11.2888H85.243C86.4673 11.2888 87.403 11.5313 88.0502 12.0163C88.3723 12.2595 88.6296 12.5783 88.7994 12.9445C88.9692 13.3107 89.0461 13.713 89.0235 14.116C89.0365 14.6901 88.8851 15.2559 88.587 15.7466C88.2918 16.2099 87.8694 16.5783 87.3704 16.8078C86.8079 17.0647 86.1949 17.1916 85.5767 17.1791C85.1513 17.1738 84.7273 17.1301 84.3098 17.0486V20.6686H82.6416V11.2888ZM86.8235 15.4707C87.0051 15.3027 87.1472 15.0966 87.2396 14.8671C87.332 14.6377 87.3724 14.3906 87.3578 14.1436C87.3578 13.5666 87.1772 13.1402 86.8134 12.8893C86.4497 12.6385 85.9204 12.5055 85.218 12.5055H84.3098V15.8445C84.6274 15.8995 84.9485 15.9313 85.2706 15.9398C85.9547 15.9398 86.4723 15.7834 86.8235 15.4707Z" fill="white"/>
<path d="M90.6719 11.2888H92.3401V19.2913H96.3313L96.1908 20.6786H90.6719V11.2888Z" fill="white"/>
<path d="M98.8674 20.207C98.175 19.8281 97.6109 19.2517 97.2469 18.5513C96.8606 17.7824 96.6685 16.9305 96.6875 16.0703C96.6668 15.1685 96.872 14.276 97.2845 13.4738C97.6721 12.7409 98.2719 12.142 99.0054 11.7554C99.8237 11.3344 100.735 11.1257 101.655 11.1483C102.527 11.1255 103.391 11.3277 104.163 11.7354C104.852 12.113 105.412 12.6878 105.771 13.386C106.153 14.1501 106.343 14.9955 106.326 15.8495C106.349 16.762 106.141 17.6655 105.721 18.476C105.331 19.2074 104.732 19.8058 104 20.1944C103.19 20.6118 102.287 20.8188 101.376 20.7965C100.503 20.8185 99.6392 20.6155 98.8674 20.207ZM103.19 19.0656C103.657 18.7626 104.022 18.3253 104.236 17.8112C104.476 17.231 104.594 16.6077 104.582 15.98C104.593 15.3649 104.49 14.7532 104.276 14.1763C104.085 13.6679 103.742 13.2302 103.295 12.9219C102.78 12.589 102.174 12.4242 101.562 12.4503C100.953 12.4315 100.353 12.5977 99.8408 12.927C99.3717 13.2411 99.0039 13.6847 98.7822 14.2038C98.5415 14.762 98.421 15.3646 98.4284 15.9724C98.4179 16.5956 98.5313 17.2147 98.7621 17.7937C98.9677 18.3094 99.3223 18.7522 99.7806 19.0656C100.287 19.3902 100.88 19.5529 101.481 19.5322C102.085 19.5491 102.679 19.3867 103.19 19.0656Z" fill="white"/>
<path d="M108.189 11.2888H111.212C112.313 11.2888 113.149 11.5029 113.721 11.931C114.002 12.144 114.226 12.4225 114.374 12.7422C114.522 13.0618 114.59 13.413 114.571 13.7648C114.581 14.222 114.475 14.6743 114.263 15.0793C114.079 15.436 113.823 15.7504 113.51 16.0025C113.23 16.2294 112.915 16.409 112.577 16.5344L115.545 20.6786H113.611L111.102 16.9558H109.875V20.6686H108.207L108.189 11.2888ZM110.806 15.7216C111.176 15.7285 111.543 15.6495 111.877 15.4908C112.176 15.3472 112.428 15.122 112.605 14.841C112.778 14.5485 112.865 14.2127 112.855 13.8727C112.871 13.6758 112.838 13.478 112.758 13.2974C112.677 13.1169 112.553 12.9593 112.396 12.8391C111.993 12.5951 111.525 12.4804 111.054 12.5105H109.848V15.7216H110.806Z" fill="white"/>
<path d="M122.115 18.1524H118.247L117.301 20.661H115.6L119.388 11.2662H120.994L124.869 20.661H123.081L122.115 18.1524ZM118.733 16.8755H121.621L120.587 14.1838C120.447 13.8125 120.307 13.4019 120.168 12.952C120.043 13.3484 119.907 13.7548 119.762 14.1712L118.733 16.8755Z" fill="white"/>
</g>
<defs>
<clipPath id="clip0_169_2378">
<rect width="213.331" height="64" fill="white"/>
</clipPath>
</defs>
</svg>
